<svg xmlns="http://www.w3.org/2000/svg" width="36" height="36" viewBox="0 0 36 36">
  <metadata><?xpacket begin="﻿" id="W5M0MpCehiHzreSzNTczkc9d"?>
<x:xmpmeta xmlns:x="adobe:ns:meta/" x:xmptk="Adobe XMP Core 5.6-c138 79.159824, 2016/09/14-01:09:01        ">
   <rdf:RDF xmlns:rdf="http://www.w3.org/1999/02/22-rdf-syntax-ns#">
      <rdf:Description rdf:about=""/>
   </rdf:RDF>
</x:xmpmeta>
                                                                                                    
                                                                                                    
                                                                                                    
                                                                                                    
                                                                                                    
                                                                                                    
                                                                                                    
                                                                                                    
                                                                                                    
                                                                                                    
                                                                                                    
                                                                                                    
                                                                                                    
                                                                                                    
                                                                                                    
                                                                                                    
                                                                                                    
                                                                                                    
                                                                                                    
                                                                                                    
                           
<?xpacket end="w"?></metadata>
<defs>
    <style>
      .cls-1 {
        fill: #1ab798;
        fill-rule: evenodd;
      }
    </style>
  </defs>
  <path class="cls-1" d="M1041.15,1607.99H1041a18.1,18.1,0,0,0-18,17.86c-0.09,9.86,7.92,17.62,17.85,18.16H1041A18.01,18.01,0,0,0,1041.15,1607.99Zm-0.15,34.93h-0.14c-9.32-.55-16.84-7.8-16.77-17.06a17.012,17.012,0,0,1,16.91-16.78h0.14A16.92,16.92,0,0,1,1041,1642.92Zm7.98-25.57-10.99,5.23a0.571,0.571,0,0,0-.26.25l-5.43,10.82a0.516,0.516,0,0,0,.1.62,0.522,0.522,0,0,0,.39.17,0.465,0.465,0,0,0,.23-0.06l10.99-5.21a0.6,0.6,0,0,0,.25-0.25l5.44-10.83a0.533,0.533,0,0,0-.1-0.63A0.549,0.549,0,0,0,1048.98,1617.35Zm-5.61,10.91-9.38,4.45,4.64-9.23,9.38-4.45Z" transform="translate(-1023 -1608)"/>
</svg>
