<svg xmlns="http://www.w3.org/2000/svg" width="36" height="35.56" viewBox="0 0 36 35.56">
  <metadata><?xpacket begin="﻿" id="W5M0MpCehiHzreSzNTczkc9d"?>
<x:xmpmeta xmlns:x="adobe:ns:meta/" x:xmptk="Adobe XMP Core 5.6-c142 79.160924, 2017/07/13-01:06:39        ">
   <rdf:RDF xmlns:rdf="http://www.w3.org/1999/02/22-rdf-syntax-ns#">
      <rdf:Description rdf:about=""/>
   </rdf:RDF>
</x:xmpmeta>
                                                                                                    
                                                                                                    
                                                                                                    
                                                                                                    
                                                                                                    
                                                                                                    
                                                                                                    
                                                                                                    
                                                                                                    
                                                                                                    
                                                                                                    
                                                                                                    
                                                                                                    
                                                                                                    
                                                                                                    
                                                                                                    
                                                                                                    
                                                                                                    
                                                                                                    
                                                                                                    
                           
<?xpacket end="w"?></metadata>
<defs>
    <style>
      .cls-1 {
        fill: #1ab798;
        fill-rule: evenodd;
      }
    </style>
  </defs>
  <path class="cls-1" d="M1046.97,1424.92h-0.22a3.166,3.166,0,0,0-1.49.53v-0.04a2.587,2.587,0,0,0-2.48-2.61h-0.23a3.487,3.487,0,0,0-1.54.58v-0.1a2.538,2.538,0,0,0-2.43-2.61h-0.22a3.628,3.628,0,0,0-1.59.58v-6.18a2.29,2.29,0,0,0-2.38-2.36h-0.23a2.573,2.573,0,0,0-2.7,2.36v15.91l-2.29-2.31a2.468,2.468,0,0,0-1.74-.72,2.515,2.515,0,0,0-1.76.72l-0.15.15a2.428,2.428,0,0,0-.74,1.75,2.386,2.386,0,0,0,.73,1.73l6.14,6.74a2.114,2.114,0,0,0,1.61.74h14.11a2.1,2.1,0,0,0,2.05-1.59l0.08-.01v-10.7A2.578,2.578,0,0,0,1046.97,1424.92Zm1.45,12.79a1.021,1.021,0,0,1-1.05,1h-14.11a1.051,1.051,0,0,1-.81-0.37l-6.18-6.78a1.36,1.36,0,0,1-.42-0.99,1.394,1.394,0,0,1,.42-0.99l0.16-.15a1.493,1.493,0,0,1,1.04-.42,1.294,1.294,0,0,1,.96.42l4.09,4.06v-18.42a1.509,1.509,0,0,1,1.64-1.29h0.23a1.213,1.213,0,0,1,1.31,1.29v7.91l1.13,0.02a1.615,1.615,0,0,1,1.53-1.27h0.22a1.48,1.48,0,0,1,1.37,1.55v1.84l1.1,0.01a1.571,1.571,0,0,1,1.5-1.27h0.23a1.519,1.519,0,0,1,1.41,1.55v1.78l1.08,0.03a1.532,1.532,0,0,1,1.48-1.24h0.22a1.483,1.483,0,0,1,1.47,1.46Zm-21.21-24.47h-3.71v1.07h3.71v-1.07Zm7.43-9.02h-1.06v3.72h1.06v-3.72Zm-4.31,5.41-2.76-2.69-0.74.77,2.77,2.68Zm11.21,4.68h3.72v-1.07h-3.72v1.07Zm0.16-6.6-0.74-.77-2.76,2.69,0.74,0.76Z" transform="translate(-1018.5 -1404.22)"/>
</svg>
