<svg xmlns="http://www.w3.org/2000/svg" width="36" height="36" viewBox="0 0 36 36">
  <metadata><?xpacket begin="﻿" id="W5M0MpCehiHzreSzNTczkc9d"?>
<x:xmpmeta xmlns:x="adobe:ns:meta/" x:xmptk="Adobe XMP Core 5.6-c138 79.159824, 2016/09/14-01:09:01        ">
   <rdf:RDF xmlns:rdf="http://www.w3.org/1999/02/22-rdf-syntax-ns#">
      <rdf:Description rdf:about=""/>
   </rdf:RDF>
</x:xmpmeta>
                                                                                                    
                                                                                                    
                                                                                                    
                                                                                                    
                                                                                                    
                                                                                                    
                                                                                                    
                                                                                                    
                                                                                                    
                                                                                                    
                                                                                                    
                                                                                                    
                                                                                                    
                                                                                                    
                                                                                                    
                                                                                                    
                                                                                                    
                                                                                                    
                                                                                                    
                                                                                                    
                           
<?xpacket end="w"?></metadata>
<defs>
    <style>
      .cls-1 {
        fill: #1ab798;
        fill-rule: evenodd;
      }
    </style>
  </defs>
  <path class="cls-1" d="M233.5,1201a18,18,0,1,0,18,18A18.018,18.018,0,0,0,233.5,1201Zm-8.842,32.38a7.177,7.177,0,0,1,2.617-.28h1.7a0.545,0.545,0,0,0,.46-0.25l1.949-2.85a0.557,0.557,0,0,0,.087-0.38,4.518,4.518,0,0,0,2.024.5,4.59,4.59,0,0,0,2.07-.52,0.542,0.542,0,0,0,.092.4l2,2.86a0.557,0.557,0,0,0,.457.24h2.034a5.5,5.5,0,0,1,2.242.25A16.871,16.871,0,0,1,224.659,1233.38Zm14.515-18.97c0.633,2.19,1.177,6.05-.063,7.07a0.574,0.574,0,0,0-.2.43c0,3.13-2.55,7.1-5.416,7.1s-5.417-3.97-5.417-7.1a0.526,0.526,0,0,0-.046-0.22,10.044,10.044,0,0,1-.239-7.22,0.563,0.563,0,0,0,.043-0.21c0-1.86.333-3.27,4.529-3.27a0.519,0.519,0,0,0,.294-0.09,6.568,6.568,0,0,1,3.39-1.12,3.268,3.268,0,0,1,2.788,1.38,3.145,3.145,0,0,1,.353,2.9A0.56,0.56,0,0,0,239.174,1214.41Zm4.227,18.26a5,5,0,0,0-3.263-.69H238.4l-1.83-2.62a0.576,0.576,0,0,0-.284-0.2,9.492,9.492,0,0,0,3.736-7c1.785-1.87.583-6.76,0.274-7.88a4.255,4.255,0,0,0-.542-3.75,4.386,4.386,0,0,0-3.705-1.86,7.508,7.508,0,0,0-3.842,1.2c-4.742.05-5.464,2.07-5.486,4.28a11.041,11.041,0,0,0,.243,7.88,9.478,9.478,0,0,0,3.757,7.14,0.529,0.529,0,0,0-.258.2l-1.783,2.61h-1.4a6.226,6.226,0,0,0-3.658.7A16.882,16.882,0,1,1,243.4,1232.67Z" transform="translate(-215.5 -1201)"/>
</svg>
