<svg xmlns="http://www.w3.org/2000/svg" width="36" height="34.82" viewBox="0 0 36 34.82">
  <metadata><?xpacket begin="﻿" id="W5M0MpCehiHzreSzNTczkc9d"?>
<x:xmpmeta xmlns:x="adobe:ns:meta/" x:xmptk="Adobe XMP Core 5.6-c138 79.159824, 2016/09/14-01:09:01        ">
   <rdf:RDF xmlns:rdf="http://www.w3.org/1999/02/22-rdf-syntax-ns#">
      <rdf:Description rdf:about=""/>
   </rdf:RDF>
</x:xmpmeta>
                                                                                                    
                                                                                                    
                                                                                                    
                                                                                                    
                                                                                                    
                                                                                                    
                                                                                                    
                                                                                                    
                                                                                                    
                                                                                                    
                                                                                                    
                                                                                                    
                                                                                                    
                                                                                                    
                                                                                                    
                                                                                                    
                                                                                                    
                                                                                                    
                                                                                                    
                                                                                                    
                           
<?xpacket end="w"?></metadata>
<defs>
    <style>
      .cls-1 {
        fill: #1ab798;
        fill-rule: evenodd;
      }
    </style>
  </defs>
  <path class="cls-1" d="M230.011,1642.42h15.108a4.09,4.09,0,0,0,3.315-1.38,4.613,4.613,0,0,0,.786-3.17,5.355,5.355,0,0,0,1.1-3.43,3.511,3.511,0,0,0-.226-1.39,4.874,4.874,0,0,0,1.1-2.85,4.726,4.726,0,0,0-.423-2.35,4.6,4.6,0,0,0,.725-2.43c0.07-3.43-3.06-4.91-5.233-5.07l-4.569.08a3.684,3.684,0,0,1,.253-0.46,16.427,16.427,0,0,0,2.549-5.05c1.351-4.01-2.079-6.8-2.225-6.92l-0.247-.15-0.078-.04a3.292,3.292,0,0,0-1.233-.23,2.932,2.932,0,0,0-1.518.4,3.862,3.862,0,0,0-1.7,3.1c-0.313,2.67-2.578,5.1-3.866,6.11-0.178.14-.321,0.25-0.415,0.33a12.514,12.514,0,0,0-2.247,3.67l-0.268.56a11.841,11.841,0,0,1-1.951,2.53c-0.321.01-.755,0.01-1.146,0.02a1.952,1.952,0,0,0-1.655-1.63h-8.128a2.48,2.48,0,0,0-2.323,2.4v15.23a2.222,2.222,0,0,0,2.323,2.12h12.187Zm-3.249-16.95,0.427-.01c0.555,0,1.386-.02,1.806-0.02l0.209-.01,0.159-.14a12.452,12.452,0,0,0,2.384-3.03l0.273-.57a12.446,12.446,0,0,1,1.961-3.29c0.084-.07.21-0.17,0.368-0.29,0.394-.31,3.865-3.14,4.3-6.9a2.8,2.8,0,0,1,1.133-2.23,1.818,1.818,0,0,1,.928-0.24,2.252,2.252,0,0,1,.76.13l0.1,0.06c0.319,0.27,2.869,2.51,1.821,5.62a15.634,15.634,0,0,1-2.377,4.73,2.322,2.322,0,0,0-.507,1.98l0.145,0.31,0.464,0.03,5.109-.09c1.445,0.11,4.163,1.06,4.105,3.88a3.375,3.375,0,0,1-.7,2.06l-0.248.32,0.208,0.34a3.424,3.424,0,0,1,.443,2.02,3.62,3.62,0,0,1-1.013,2.37l-0.314.28,0.176,0.39a2.53,2.53,0,0,1,.276,1.23,3.865,3.865,0,0,1-.95,2.84l-0.238.22,0.061,0.32a3.472,3.472,0,0,1-.546,2.59,2.919,2.919,0,0,1-2.384.88c-0.279.01-.686,0.01-1.193,0.01l-4.024-.01H226.533v-16.5c0.037,0.11.071,0.22,0.1,0.31Zm-10.1,14.83v-15.23a1.318,1.318,0,0,1,1.161-1.23h7.548v17.41h-7.548A1.068,1.068,0,0,1,216.663,1640.3Z" transform="translate(-215.5 -1607.59)"/>
</svg>
