<svg xmlns="http://www.w3.org/2000/svg" width="36" height="42.816" viewBox="0 0 30 35.68">
  <metadata><?xpacket begin="﻿" id="W5M0MpCehiHzreSzNTczkc9d"?>
<x:xmpmeta xmlns:x="adobe:ns:meta/" x:xmptk="Adobe XMP Core 5.6-c142 79.160924, 2017/07/13-01:06:39        ">
   <rdf:RDF xmlns:rdf="http://www.w3.org/1999/02/22-rdf-syntax-ns#">
      <rdf:Description rdf:about=""/>
   </rdf:RDF>
</x:xmpmeta>
                                                                                                    
                                                                                                    
                                                                                                    
                                                                                                    
                                                                                                    
                                                                                                    
                                                                                                    
                                                                                                    
                                                                                                    
                                                                                                    
                                                                                                    
                                                                                                    
                                                                                                    
                                                                                                    
                                                                                                    
                                                                                                    
                                                                                                    
                                                                                                    
                                                                                                    
                                                                                                    
                           
<?xpacket end="w"?></metadata>
<defs>
    <style>
      .cls-1 {
        fill: #1ab798;
        fill-rule: evenodd;
      }
    </style>
  </defs>
  <path class="cls-1" d="M1023.83,1235.31h2.47a0.858,0.858,0,0,1,.16.19v3.76a0.58,0.58,0,1,0,1.16,0v-3.76a0.535,0.535,0,0,0-.24-0.19h2.47a0.628,0.628,0,0,0,.65-0.56v-6.94h3.46v0.92c0,0.32.08,0.81,0.4,0.81h3.77a6.059,6.059,0,0,0,0-12.11h-3.77c-0.32,0-.4.45-0.4,0.76v0.97h-4.11c-5.74,0-6.85,2.97-6.85,4.77v10.82A0.833,0.833,0,0,0,1023.83,1235.31Zm11.29-16.73h3.01a4.91,4.91,0,0,1,0,9.81h-3.01v-9.81Zm-1.16,8.08h-3.46v-6.35h3.46v6.35Zm-9.81-2.73c0-2.29,1.74-3.52,5.2-3.64v13.87h-5.2v-10.23Zm14.73-8.23h3.01a0.682,0.682,0,0,0,.73-0.52v-0.64h3.46v6.66c0,0.32,0,.84.32,0.84h2.47c-0.02,0,.09-0.15.09-0.08v17.3a0.58,0.58,0,0,0,.58.58,0.572,0.572,0,0,0,.57-0.58v-17.3c0-.07-0.14.08-0.16,0.08h2.47a0.861,0.861,0,0,0,.58-0.84v-10.81c0-1.8-.86-5.08-6.6-5.08h-3.78v-0.66a0.661,0.661,0,0,0-.73-0.49h-3.01A5.771,5.771,0,1,0,1038.88,1215.7Zm12.97-5.31v10.5h-4.62v-14.15C1050.11,1206.87,1051.85,1208.09,1051.85,1210.39Zm-5.77-3.92v6.92h-3.46v-6.92h3.46Zm-7.2-1.16h2.58v9.23h-2.58A4.616,4.616,0,1,1,1038.88,1205.31Z" transform="translate(-1023 -1204.16)"/>
</svg>
