<svg xmlns="http://www.w3.org/2000/svg" width="36" height="31.25" viewBox="0 0 36 31.25">
  <metadata><?xpacket begin="﻿" id="W5M0MpCehiHzreSzNTczkc9d"?>
<x:xmpmeta xmlns:x="adobe:ns:meta/" x:xmptk="Adobe XMP Core 5.6-c138 79.159824, 2016/09/14-01:09:01        ">
   <rdf:RDF xmlns:rdf="http://www.w3.org/1999/02/22-rdf-syntax-ns#">
      <rdf:Description rdf:about=""/>
   </rdf:RDF>
</x:xmpmeta>
                                                                                                    
                                                                                                    
                                                                                                    
                                                                                                    
                                                                                                    
                                                                                                    
                                                                                                    
                                                                                                    
                                                                                                    
                                                                                                    
                                                                                                    
                                                                                                    
                                                                                                    
                                                                                                    
                                                                                                    
                                                                                                    
                                                                                                    
                                                                                                    
                                                                                                    
                                                                                                    
                           
<?xpacket end="w"?></metadata>
<defs>
    <style>
      .cls-1 {
        fill: #1ab798;
        fill-rule: evenodd;
      }
    </style>
  </defs>
  <path class="cls-1" d="M236.007,1414.18a3.007,3.007,0,1,0-3.007,3.01A3.01,3.01,0,0,0,236.007,1414.18Zm-4.811,0a1.8,1.8,0,1,1,1.8,1.81A1.805,1.805,0,0,1,231.2,1414.18Zm1.789,17.79,0.467-.57c0.327-.4,7.993-9.83,7.966-16-0.02-4.98-3.8-9.03-8.418-9.03-4.642,0-8.418,4.05-8.418,9.03,0,6.17,7.615,15.6,7.939,16Zm0.015-24.4c3.961,0,7.2,3.51,7.216,7.83,0.021,4.91-5.557,12.49-7.227,14.65-1.663-2.17-7.205-9.74-7.205-14.65C225.784,1411.08,229.021,1407.57,233,1407.57Zm-13.063,18.07-4.645,8.45a2.386,2.386,0,0,0,2.095,3.54h31.226a2.387,2.387,0,0,0,2.095-3.54l-4.645-8.45a2.4,2.4,0,0,0-2.095-1.24h-4.354a0.605,0.605,0,0,0,0,1.21h4.354a1.186,1.186,0,0,1,1.042.61l4.644,8.45a1.186,1.186,0,0,1-1.041,1.76H217.387a1.186,1.186,0,0,1-1.041-1.76l4.644-8.45a1.184,1.184,0,0,1,1.042-.61h4.354a0.605,0.605,0,0,0,0-1.21h-4.354A2.4,2.4,0,0,0,219.937,1425.64Z" transform="translate(-215 -1406.38)"/>
</svg>
